<svg xmlns="http://www.w3.org/2000/svg" version="1.1" xmlns:xlink="http://www.w3.org/1999/xlink" xmlns:svgjs="http://svgjs.dev/svgjs" width="1000" height="282" viewBox="0 0 1000 282"><g transform="matrix(1,0,0,1,-0.6060489899828099,0.01321166491837289)"><svg viewBox="0 0 396 112" data-background-color="#ffffff" preserveAspectRatio="xMidYMid meet" height="282" width="1000" xmlns="http://www.w3.org/2000/svg" xmlns:xlink="http://www.w3.org/1999/xlink"><g id="tight-bounds" transform="matrix(1,0,0,1,0.23999540003319453,-0.005247186066867471)"><svg viewBox="0 0 395.52 112.01049437213373" height="112.01049437213373" width="395.52"><g><svg viewBox="0 0 395.52 112.01049437213373" height="112.01049437213373" width="395.52"><g><svg viewBox="0 0 395.52 112.01049437213373" height="112.01049437213373" width="395.52"><g id="textblocktransform"><svg viewBox="0 0 395.52 112.01049437213373" height="112.01049437213373" width="395.52" id="textblock"><g><svg viewBox="0 0 395.52 78.62352291551628" height="78.62352291551628" width="395.52"><g transform="matrix(1,0,0,1,0,0)"><svg width="395.52" viewBox="2.049999952316284 -35.5 185.72999572753906 36" height="78.62352291551628" data-palette-color="#000000"><g class="undefined-text-0" data-fill-palette-color="primary" id="text-0"><path d="M2.05 0L2.05-35 10.15-35Q14.25-35 16.3-32.8 18.35-30.6 18.35-26.35L18.35-26.35 18.35-22.9Q18.35-18.65 16.3-16.45 14.25-14.25 10.15-14.25L10.15-14.25 7.55-14.25 7.55 0 2.05 0ZM7.55-19.25L10.15-19.25Q11.5-19.25 12.18-20 12.85-20.75 12.85-22.55L12.85-22.55 12.85-26.7Q12.85-28.5 12.18-29.25 11.5-30 10.15-30L10.15-30 7.55-30 7.55-19.25ZM21.35 0L21.35-5.3 26.65-5.3 26.65 0 21.35 0ZM37.89 0.5Q33.89 0.5 31.84-1.78 29.79-4.05 29.79-8.3L29.79-8.3 29.79-10.3 34.99-10.3 34.99-7.9Q34.99-4.5 37.84-4.5L37.84-4.5Q39.24-4.5 39.97-5.33 40.69-6.15 40.69-8L40.69-8Q40.69-10.2 39.69-11.88 38.69-13.55 35.99-15.9L35.99-15.9Q32.59-18.9 31.24-21.33 29.89-23.75 29.89-26.8L29.89-26.8Q29.89-30.95 31.99-33.23 34.09-35.5 38.09-35.5L38.09-35.5Q42.05-35.5 44.07-33.23 46.09-30.95 46.09-26.7L46.09-26.7 46.09-25.25 40.89-25.25 40.89-27.05Q40.89-28.85 40.19-29.68 39.49-30.5 38.14-30.5L38.14-30.5Q35.39-30.5 35.39-27.15L35.39-27.15Q35.39-25.25 36.42-23.6 37.44-21.95 40.14-19.6L40.14-19.6Q43.59-16.6 44.89-14.15 46.19-11.7 46.19-8.4L46.19-8.4Q46.19-4.1 44.07-1.8 41.94 0.5 37.89 0.5L37.89 0.5ZM57.29 0.5Q53.24 0.5 51.09-1.8 48.94-4.1 48.94-8.3L48.94-8.3 48.94-26.7Q48.94-30.9 51.09-33.2 53.24-35.5 57.29-35.5L57.29-35.5Q61.34-35.5 63.49-33.2 65.64-30.9 65.64-26.7L65.64-26.7 65.64-8.3Q65.64-4.1 63.49-1.8 61.34 0.5 57.29 0.5L57.29 0.5ZM57.29-4.5Q60.14-4.5 60.14-7.95L60.14-7.95 60.14-27.05Q60.14-30.5 57.29-30.5L57.29-30.5Q54.44-30.5 54.44-27.05L54.44-27.05 54.44-7.95Q54.44-4.5 57.29-4.5L57.29-4.5ZM69.34 0L69.34-35 83.89-35 83.89-30 74.84-30 74.84-20.25 81.94-20.25 81.94-15.25 74.84-15.25 74.84 0 69.34 0ZM90.84 0L90.84-30 85.09-30 85.09-35 102.09-35 102.09-30 96.34-30 96.34 0 90.84 0ZM106.99 0L103.44-35 108.74-35 111.19-8.1 111.29-8.1 113.89-35 119.89-35 122.49-8.1 122.59-8.1 125.04-35 129.79-35 126.24 0 119.39 0 116.89-23.6 116.79-23.6 114.29 0 106.99 0ZM131.13 0L136.83-35 144.28-35 149.98 0 144.48 0 143.48-6.95 143.48-6.85 137.23-6.85 136.23 0 131.13 0ZM137.88-11.6L142.83-11.6 140.38-28.9 140.28-28.9 137.88-11.6ZM152.63 0L152.63-35 160.78-35Q165.03-35 166.98-33.02 168.93-31.05 168.93-26.95L168.93-26.95 168.93-24.8Q168.93-19.35 165.33-17.9L165.33-17.9 165.33-17.8Q167.33-17.2 168.16-15.35 168.98-13.5 168.98-10.4L168.98-10.4 168.98-4.25Q168.98-2.75 169.08-1.83 169.18-0.9 169.58 0L169.58 0 163.98 0Q163.68-0.85 163.58-1.6 163.48-2.35 163.48-4.3L163.48-4.3 163.48-10.7Q163.48-13.1 162.71-14.05 161.93-15 160.03-15L160.03-15 158.13-15 158.13 0 152.63 0ZM158.13-20L160.13-20Q161.78-20 162.61-20.85 163.43-21.7 163.43-23.7L163.43-23.7 163.43-26.4Q163.43-28.3 162.76-29.15 162.08-30 160.63-30L160.63-30 158.13-30 158.13-20ZM172.78 0L172.78-35 187.78-35 187.78-30 178.28-30 178.28-20.75 185.83-20.75 185.83-15.75 178.28-15.75 178.28-5 187.78-5 187.78 0 172.78 0Z" fill="#000000" data-fill-palette-color="primary"></path></g></svg></g></svg></g><g transform="matrix(1,0,0,1,163.310208,97.1846497113197)"><svg viewBox="0 0 232.209792 14.825844660814045" height="14.825844660814045" width="232.209792"><g transform="matrix(1,0,0,1,0,0)"><svg width="232.209792" viewBox="2.049999952316284 -35.5 563.77001953125 36" height="14.825844660814045" data-palette-color="#61777f"><path d="M2.05 0L2.05-35 16.6-35 16.6-30 7.55-30 7.55-20.25 14.65-20.25 14.65-15.25 7.55-15.25 7.55 0 2.05 0ZM19.25 0L19.25-35 24.75-35 24.75 0 19.25 0ZM28.84 0L28.84-35 35.74-35 41.09-14.05 41.2-14.05 41.2-35 46.09-35 46.09 0 40.45 0 33.84-25.55 33.74-25.55 33.74 0 28.84 0ZM54.49 0L54.49-30 48.74-30 48.74-35 65.74-35 65.74-30 59.99-30 59.99 0 54.49 0ZM68.39 0L68.39-35 83.39-35 83.39-30 73.89-30 73.89-20.75 81.44-20.75 81.44-15.75 73.89-15.75 73.89-5 83.39-5 83.39 0 68.39 0ZM94.29 0.5Q90.34 0.5 88.26-1.75 86.19-4 86.19-8.1L86.19-8.1 86.19-26.9Q86.19-31 88.26-33.25 90.34-35.5 94.29-35.5L94.29-35.5Q98.24-35.5 100.31-33.25 102.39-31 102.39-26.9L102.39-26.9 102.39-23.2 97.19-23.2 97.19-27.25Q97.19-30.5 94.44-30.5L94.44-30.5Q91.69-30.5 91.69-27.25L91.69-27.25 91.69-7.7Q91.69-4.5 94.44-4.5L94.44-4.5Q97.19-4.5 97.19-7.7L97.19-7.7 97.19-13.05 102.39-13.05 102.39-8.1Q102.39-4 100.31-1.75 98.24 0.5 94.29 0.5L94.29 0.5ZM105.69 0L105.69-35 111.19-35 111.19-20.75 117.09-20.75 117.09-35 122.59-35 122.59 0 117.09 0 117.09-15.75 111.19-15.75 111.19 0 105.69 0ZM134.68 0L134.68-35 143.08-35Q147.18-35 149.23-32.8 151.28-30.6 151.28-26.35L151.28-26.35 151.28-8.65Q151.28-4.4 149.23-2.2 147.18 0 143.08 0L143.08 0 134.68 0ZM140.18-5L142.98-5Q144.33-5 145.06-5.8 145.78-6.6 145.78-8.4L145.78-8.4 145.78-26.6Q145.78-28.4 145.06-29.2 144.33-30 142.98-30L142.98-30 140.18-30 140.18-5ZM154.98 0L154.98-35 169.98-35 169.98-30 160.48-30 160.48-20.75 168.03-20.75 168.03-15.75 160.48-15.75 160.48-5 169.98-5 169.98 0 154.98 0ZM176.98 0L171.68-35 177.23-35 180.83-7.85 180.93-7.85 184.53-35 189.58-35 184.28 0 176.98 0ZM192.22 0L192.22-35 207.22-35 207.22-30 197.72-30 197.72-20.75 205.27-20.75 205.27-15.75 197.72-15.75 197.72-5 207.22-5 207.22 0 192.22 0ZM210.37 0L210.37-35 215.87-35 215.87-5 224.92-5 224.92 0 210.37 0ZM235.32 0.5Q231.27 0.5 229.12-1.8 226.97-4.1 226.97-8.3L226.97-8.3 226.97-26.7Q226.97-30.9 229.12-33.2 231.27-35.5 235.32-35.5L235.32-35.5Q239.37-35.5 241.52-33.2 243.67-30.9 243.67-26.7L243.67-26.7 243.67-8.3Q243.67-4.1 241.52-1.8 239.37 0.5 235.32 0.5L235.32 0.5ZM235.32-4.5Q238.17-4.5 238.17-7.95L238.17-7.95 238.17-27.05Q238.17-30.5 235.32-30.5L235.32-30.5Q232.47-30.5 232.47-27.05L232.47-27.05 232.47-7.95Q232.47-4.5 235.32-4.5L235.32-4.5ZM247.37 0L247.37-35 255.47-35Q259.57-35 261.62-32.8 263.67-30.6 263.67-26.35L263.67-26.35 263.67-22.9Q263.67-18.65 261.62-16.45 259.57-14.25 255.47-14.25L255.47-14.25 252.87-14.25 252.87 0 247.37 0ZM252.87-19.25L255.47-19.25Q256.82-19.25 257.49-20 258.17-20.75 258.17-22.55L258.17-22.55 258.17-26.7Q258.17-28.5 257.49-29.25 256.82-30 255.47-30L255.47-30 252.87-30 252.87-19.25ZM266.66 0L266.66-35 274.51-35 278.01-9.95 278.11-9.95 281.61-35 289.46-35 289.46 0 284.26 0 284.26-26.5 284.16-26.5 280.16 0 275.56 0 271.56-26.5 271.46-26.5 271.46 0 266.66 0ZM293.56 0L293.56-35 308.56-35 308.56-30 299.06-30 299.06-20.75 306.61-20.75 306.61-15.75 299.06-15.75 299.06-5 308.56-5 308.56 0 293.56 0ZM311.71 0L311.71-35 318.61-35 323.96-14.05 324.06-14.05 324.06-35 328.96-35 328.96 0 323.31 0 316.71-25.55 316.61-25.55 316.61 0 311.71 0ZM337.36 0L337.36-30 331.61-30 331.61-35 348.61-35 348.61-30 342.86-30 342.86 0 337.36 0ZM365 0.5Q362 0.5 360.45-1.55 358.9-3.6 358.9-7.5L358.9-7.5 358.9-11.15Q358.9-13.9 359.85-15.75 360.8-17.6 362.95-18.45L362.95-18.45 362.95-18.55Q361-19.35 360.08-21.13 359.15-22.9 359.15-25.7L359.15-25.7 359.15-26.35Q359.15-30.6 361.2-32.8 363.25-35 367.35-35L367.35-35 373.65-35 373.65-30 367.45-30Q366.1-30 365.38-29.2 364.65-28.4 364.65-26.6L364.65-26.6 364.65-24.45Q364.65-22.45 365.48-21.6 366.3-20.75 367.95-20.75L367.95-20.75 370.1-20.75 370.1-24.65 375.5-24.65 375.5-20.75 377.05-20.75 377.05-15.75 375.5-15.75 375.5-4.25Q375.5-2.75 375.6-1.83 375.7-0.9 376.1 0L376.1 0 370.6 0Q370.2-1.1 370.1-2.75L370.1-2.75 370-2.75Q369.1-1.1 367.93-0.3 366.75 0.5 365 0.5L365 0.5ZM367.05-4.5Q369.65-4.5 370.1-7.65L370.1-7.65 370.1-15.75 368-15.75Q366.1-15.75 365.25-14.73 364.4-13.7 364.4-11.3L364.4-11.3 364.4-7.75Q364.4-6 365.1-5.25 365.8-4.5 367.05-4.5L367.05-4.5ZM395.85 0.5Q391.9 0.5 389.82-1.75 387.75-4 387.75-8.1L387.75-8.1 387.75-26.9Q387.75-31 389.82-33.25 391.9-35.5 395.85-35.5L395.85-35.5Q399.8-35.5 401.87-33.25 403.95-31 403.95-26.9L403.95-26.9 403.95-23.2 398.75-23.2 398.75-27.25Q398.75-30.5 396-30.5L396-30.5Q393.25-30.5 393.25-27.25L393.25-27.25 393.25-7.7Q393.25-4.5 396-4.5L396-4.5Q398.75-4.5 398.75-7.7L398.75-7.7 398.75-13.05 403.95-13.05 403.95-8.1Q403.95-4 401.87-1.75 399.8 0.5 395.85 0.5L395.85 0.5ZM415.29 0.5Q411.24 0.5 409.09-1.8 406.94-4.1 406.94-8.3L406.94-8.3 406.94-26.7Q406.94-30.9 409.09-33.2 411.24-35.5 415.29-35.5L415.29-35.5Q419.34-35.5 421.49-33.2 423.64-30.9 423.64-26.7L423.64-26.7 423.64-8.3Q423.64-4.1 421.49-1.8 419.34 0.5 415.29 0.5L415.29 0.5ZM415.29-4.5Q418.14-4.5 418.14-7.95L418.14-7.95 418.14-27.05Q418.14-30.5 415.29-30.5L415.29-30.5Q412.44-30.5 412.44-27.05L412.44-27.05 412.44-7.95Q412.44-4.5 415.29-4.5L415.29-4.5ZM427.34 0L427.34-35 434.24-35 439.59-14.05 439.69-14.05 439.69-35 444.59-35 444.59 0 438.94 0 432.34-25.55 432.24-25.55 432.24 0 427.34 0ZM455.84 0.5Q451.84 0.5 449.79-1.78 447.74-4.05 447.74-8.3L447.74-8.3 447.74-10.3 452.94-10.3 452.94-7.9Q452.94-4.5 455.79-4.5L455.79-4.5Q457.19-4.5 457.91-5.33 458.64-6.15 458.64-8L458.64-8Q458.64-10.2 457.64-11.88 456.64-13.55 453.94-15.9L453.94-15.9Q450.54-18.9 449.19-21.33 447.84-23.75 447.84-26.8L447.84-26.8Q447.84-30.95 449.94-33.23 452.04-35.5 456.04-35.5L456.04-35.5Q459.99-35.5 462.01-33.23 464.04-30.95 464.04-26.7L464.04-26.7 464.04-25.25 458.84-25.25 458.84-27.05Q458.84-28.85 458.14-29.68 457.44-30.5 456.09-30.5L456.09-30.5Q453.34-30.5 453.34-27.15L453.34-27.15Q453.34-25.25 454.36-23.6 455.39-21.95 458.09-19.6L458.09-19.6Q461.54-16.6 462.84-14.15 464.14-11.7 464.14-8.4L464.14-8.4Q464.14-4.1 462.01-1.8 459.89 0.5 455.84 0.5L455.84 0.5ZM475.29 0.5Q471.29 0.5 469.19-1.78 467.09-4.05 467.09-8.3L467.09-8.3 467.09-35 472.59-35 472.59-7.9Q472.59-6.1 473.31-5.3 474.04-4.5 475.39-4.5L475.39-4.5Q476.74-4.5 477.46-5.3 478.19-6.1 478.19-7.9L478.19-7.9 478.19-35 483.49-35 483.49-8.3Q483.49-4.05 481.39-1.78 479.29 0.5 475.29 0.5L475.29 0.5ZM487.38 0L487.38-35 492.88-35 492.88-5 501.93-5 501.93 0 487.38 0ZM504.98 0L504.98-30 499.23-30 499.23-35 516.23-35 516.23-30 510.48-30 510.48 0 504.98 0ZM518.88 0L518.88-35 524.38-35 524.38 0 518.88 0ZM528.48 0L528.48-35 535.38-35 540.73-14.05 540.83-14.05 540.83-35 545.73-35 545.73 0 540.08 0 533.48-25.55 533.38-25.55 533.38 0 528.48 0ZM557.62 0.5Q553.62 0.5 551.52-1.78 549.42-4.05 549.42-8.3L549.42-8.3 549.42-26.7Q549.42-30.95 551.52-33.23 553.62-35.5 557.62-35.5L557.62-35.5Q561.62-35.5 563.72-33.23 565.82-30.95 565.82-26.7L565.82-26.7 565.82-23.7 560.62-23.7 560.62-27.05Q560.62-30.5 557.77-30.5L557.77-30.5Q554.92-30.5 554.92-27.05L554.92-27.05 554.92-7.9Q554.92-4.5 557.77-4.5L557.77-4.5Q560.62-4.5 560.62-7.9L560.62-7.9 560.62-14.75 557.87-14.75 557.87-19.75 565.82-19.75 565.82-8.3Q565.82-4.05 563.72-1.78 561.62 0.5 557.62 0.5L557.62 0.5Z" opacity="1" transform="matrix(1,0,0,1,0,0)" fill="#61777f" class="undefined-text-1" data-fill-palette-color="secondary" id="text-1"></path></svg></g></svg></g></svg></g></svg></g></svg></g><defs></defs></svg><rect width="395.52" height="112.01049437213373" fill="none" stroke="none" visibility="hidden"></rect></g></svg></g></svg>